<?xml version="1.0" encoding="UTF-8" standalone="no"?>
<svg width="32px" height="28px" viewBox="0 0 32 28" version="1.1" xmlns="http://www.w3.org/2000/svg" xmlns:xlink="http://www.w3.org/1999/xlink">
    <!-- Generator: Sketch 41.1 (35376) - http://www.bohemiancoding.com/sketch -->
    <title>Group</title>
    <desc>Created with Sketch.</desc>
    <defs></defs>
    <g id="-home" stroke="none" stroke-width="1" fill="none" fill-rule="evenodd">
        <g id="stories---issue-one" transform="translate(-704.000000, -2230.000000)" fill="#101115">
            <g id="Group-21" transform="translate(0.000000, 2106.000000)">
                <g id="Group-20" transform="translate(557.000000, 124.000000)">
                    <g id="Group" transform="translate(147.000000, 0.000000)">
                        <polygon id="Fill-1" points="6.34172632 0.0889614035 6.14154586 2.86955789 4.35748571 1.1844 4.47153083 3.61647018 2.23754586 2.06197895 2.35784662 4.63675088 0.14407218 2.93759298 1.91513985 8.19913684 8.57089925 4.41864561"></polygon>
                        <path d="M28.5444812,5.89684912 L31.9035188,10.7086737 L29.6548571,9.54741053 L29.0049925,20.416814 L29.8997895,26.3621474 L30.116812,27.3856211 L28.381594,27.7456912 L28.1645714,26.7767439 L26.7021955,24.7037614 L20.443188,22.627586 L11.420391,22.2974807 L9.79609023,26.916007 L9.79609023,27.8557263 L8.08878195,27.7179368 L7.95380451,26.916007 L7.22189474,24.0666386 L4.37702256,17.5119368 L2.05064662,10.0000772 L9.90845113,5.19193684 L28.5444812,5.89684912 Z M24.1015338,22.0752 L26.0927519,23.8163579 L28.0839699,8.30239298 L24.1015338,8.30239298 L24.1015338,22.0752 Z M22.9632481,7.63972632 L19.5500752,7.63972632 L20.6060752,20.5830947 L22.9632481,21.2462526 L22.9632481,7.63972632 Z M13.7248722,7.30765614 L12.5586767,13.944393 L18.980812,13.944393 L18.2489023,7.63972632 L13.7248722,7.30765614 Z M12.5586767,14.9884982 L11.0156992,21.2462526 L19.2849323,20.9132 L19.2849323,14.9884982 L12.5586767,14.9884982 Z M11.7461654,12.8789193 L12.5586767,7.63972632 L10.0395789,6.64449825 L6.13846617,10.6246737 L11.7461654,12.8789193 Z M5.40655639,11.4541123 L4.26827068,12.3675509 L9.34857143,22.9046386 L11.5033985,14.4415158 L5.40655639,11.4541123 Z" id="Fill-4"></path>
                    </g>
                </g>
            </g>
        </g>
    </g>
</svg>